HIERARCHY
ROOT Hips
{
 OFFSET 0.000000 0.000000 0.000000
 CHANNELS 6 Xposition Yposition Zposition Yrotation Xrotation Zrotation
 JOINT Chest
 {
  OFFSET 0.000000 9.585900 0.002600
  CHANNELS 3 Yrotation Xrotation Zrotation
  JOINT Chest2
  {
   OFFSET 0.000000 9.601200 -0.005300
   CHANNELS 3 Yrotation Xrotation Zrotation
   JOINT Chest3
   {
    OFFSET 0.000000 9.561800 0.000000
    CHANNELS 3 Yrotation Xrotation Zrotation
    JOINT Chest4
    {
     OFFSET 0.000000 9.552100 0.000000
     CHANNELS 3 Yrotation Xrotation Zrotation
     JOINT Neck
     {
      OFFSET 0.000000 14.453000 0.000000
      CHANNELS 3 Yrotation Xrotation Zrotation
      JOINT Head
      {
       OFFSET 0.000000 8.936500 -0.011300
       CHANNELS 3 Yrotation Xrotation Zrotation
       End Site
       {
        OFFSET 0.000000 17.073600 -0.006000
       }
      }
     }
     JOINT RightCollar
     {
      OFFSET -2.921100 9.558500 0.000000
      CHANNELS 3 Yrotation Xrotation Zrotation
      JOINT RightShoulder
      {
       OFFSET -13.519700 0.000000 0.000000
       CHANNELS 3 Yrotation Xrotation Zrotation
       JOINT RightElbow
       {
        OFFSET 0.000000 -29.696600 0.000000
        CHANNELS 3 Yrotation Xrotation Zrotation
        JOINT RightWrist
        {
         OFFSET 0.000000 -24.004700 0.000000
         CHANNELS 3 Yrotation Xrotation Zrotation
         End Site
         {
          OFFSET 0.000000 -17.728500 0.000000
         }
        }
       }
      }
     }
     JOINT LeftCollar
     {
      OFFSET 2.921100 9.558500 0.000000
      CHANNELS 3 Yrotation Xrotation Zrotation
      JOINT LeftShoulder
      {
       OFFSET 13.519700 0.000000 0.000000
       CHANNELS 3 Yrotation Xrotation Zrotation
       JOINT LeftElbow
       {
        OFFSET 0.000000 -29.696600 0.000000
        CHANNELS 3 Yrotation Xrotation Zrotation
        JOINT LeftWrist
        {
         OFFSET 0.000000 -24.004700 0.000000
         CHANNELS 3 Yrotation Xrotation Zrotation
         End Site
         {
          OFFSET 0.000000 -17.728500 0.000000
         }
        }
       }
      }
     }
    }
   }
  }
 }
 JOINT RightHip
 {
  OFFSET -7.771700 -0.012900 -0.001300
  CHANNELS 3 Yrotation Xrotation Zrotation
  JOINT RightKnee
  {
   OFFSET 0.000000 -40.869800 0.001200
   CHANNELS 3 Yrotation Xrotation Zrotation
   JOINT RightAnkle
   {
    OFFSET 0.000000 -39.717900 0.002100
    CHANNELS 3 Yrotation Xrotation Zrotation
    JOINT RightToe
    {
     OFFSET 0.000000 -4.965400 11.033500
     CHANNELS 3 Yrotation Xrotation Zrotation
     End Site
     {
      OFFSET 0.000000 -1.423100 5.872300
     }
    }
   }
  }
 }
 JOINT LeftHip
 {
  OFFSET 7.771700 -0.012900 -0.001300
  CHANNELS 3 Yrotation Xrotation Zrotation
  JOINT LeftKnee
  {
   OFFSET 0.000000 -40.869800 0.001200
   CHANNELS 3 Yrotation Xrotation Zrotation
   JOINT LeftAnkle
   {
    OFFSET 0.000000 -39.717900 0.002100
    CHANNELS 3 Yrotation Xrotation Zrotation
    JOINT LeftToe
    {
     OFFSET 0.000000 -4.965400 11.033500
     CHANNELS 3 Yrotation Xrotation Zrotation
     End Site
     {
      OFFSET 0.000000 -1.423100 5.872300
     }
    }
   }
  }
 }
}
MOTION
Frames: 16
Frame Time: 0.008333
0.000000 85.388000 0.000000 0.000000 -5.767877 0.000000 0.000000 11.653817 0.000000 0.000000 -5.885947 0.000000 0.000000 -0.000000 0.000000 0.000000 -0.000000 0.000000 0.000000 12.528835 0.000000 0.000000 0.711642 0.000000 0.000000 -0.000000 0.000000 0.000000 0.000000 -90.000000 0.000000 -2.309062 0.000000 0.000000 2.309062 0.000000 0.000000 -0.000000 0.000000 0.000000 -0.000000 90.000000 0.000000 -2.309062 0.000000 0.000000 2.309062 0.000000 0.000000 8.520406 0.000000 0.000000 1.905762 0.000000 -0.000000 -4.658285 0.000000 0.000000 -0.000000 0.000000 0.000000 8.520406 0.000000 0.000000 1.905762 0.000000 -0.000000 -4.658285 0.000000 0.000000 -0.000000 0.000000
-117.646494 48.982501 19.658918 -179.223435 -31.377511 -3.307450 1.017221 17.910726 2.915579 0.123215 2.047497 0.289988 0.209798 3.390227 0.482759 1.251412 15.790235 2.409474 10.244760 23.877853 -0.801896 18.597169 9.207725 -3.921362 1.325462 -6.373306 -4.165092 -4.846271 -22.140064 -8.162717 -59.291967 -41.851741 85.952702 -2.691012 -6.028413 -6.753520 -5.413174 -4.157197 5.587198 2.225749 -25.094814 10.471627 61.714421 -33.531915 -85.907514 16.555011 -3.529981 13.584957 1.134724 -53.620024 -13.612991 -167.609238 82.538874 -156.869575 -29.892821 -2.011403 -1.415584 -0.509543 -10.618702 1.986594 -15.533285 -55.188069 15.061207 -72.326582 66.254903 -77.805713 30.064192 6.658104 14.878865 0.517020 -0.210973 0.271043
-117.654051 48.982738 19.671358 -179.163692 -31.331626 -3.322388 1.006680 17.897287 2.932996 0.102307 2.031785 0.281116 0.230536 3.401094 0.495063 1.241613 15.780332 2.413688 10.189753 23.957902 -0.812534 18.475934 9.347026 -3.927166 1.341058 -6.389289 -4.155531 -4.831124 -22.087290 -8.110944 -59.326181 -41.847379 85.942712 -2.706283 -6.016571 -6.807053 -5.441085 -4.181985 5.575896 2.191320 -24.995829 10.460419 61.713225 -33.446183 -85.870498 16.583080 -3.544746 13.654439 1.207936 -53.649874 -13.666108 -167.306748 82.534358 -156.562537 -29.902739 -2.011522 -1.399792 -0.489914 -10.583268 2.017111 -15.570918 -55.228482 15.058203 -72.204762 66.241488 -77.696480 30.096257 6.694434 14.901108 0.493779 -0.212343 0.271703
-117.672847 48.975600 19.697336 -178.999329 -31.193634 -3.329475 0.873260 17.794505 2.878718 0.088133 2.019410 0.274461 0.243611 3.406593 0.505484 1.212753 15.764902 2.402172 10.160033 24.060331 -0.807484 18.359732 9.524883 -3.926983 1.378669 -6.400505 -4.131527 -4.841090 -22.047118 -8.068823 -59.346088 -41.814148 85.942394 -2.722012 -6.021707 -6.859623 -5.434474 -4.218593 5.576428 2.146521 -24.875449 10.439460 61.726870 -33.387482 -85.836145 16.543030 -3.568321 13.640138 1.257395 -53.774040 -13.818900 -167.071282 82.527744 -156.351263 -29.870088 -2.011126 -1.361166 -0.523712 -10.536722 2.037637 -15.649797 -55.370365 14.990767 -71.978336 66.216225 -77.504511 30.122267 6.779973 14.959870 0.480458 -0.227954 0.269345
-117.682130 48.977919 19.710339 -178.969021 -31.160762 -3.331720 0.875560 17.785730 2.889529 0.090731 2.020686 0.279041 0.238441 3.397078 0.505096 1.216510 15.759634 2.420007 10.092741 24.173869 -0.824187 18.251961 9.740554 -3.921238 1.395054 -6.424950 -4.121654 -4.858839 -22.009032 -8.030967 -59.357964 -41.805409 85.933551 -2.768348 -6.047922 -6.889942 -5.460440 -4.265933 5.557708 2.127213 -24.758165 10.407791 61.740872 -33.352394 -85.807968 16.512856 -3.579672 13.624158 1.327868 -53.798156 -13.851243 -166.805412 82.529576 -156.105960 -29.866360 -1.986263 -1.326095 -0.493622 -10.516413 2.047483 -15.658495 -55.401847 14.982128 -71.871920 66.202297 -77.409439 30.157622 6.828874 14.993079 0.452950 -0.246354 0.259019
-117.690537 48.983391 19.719030 -178.986283 -31.163853 -3.321773 0.920664 17.809411 2.912148 0.094726 2.016285 0.280560 0.232050 3.393163 0.507552 1.213752 15.746473 2.433472 10.038622 24.314762 -0.835751 18.153048 9.993099 -3.911504 1.423913 -6.450261 -4.102412 -4.879995 -21.970620 -7.997655 -59.382886 -41.755263 85.938382 -2.775011 -6.081619 -6.901581 -5.485251 -4.280648 5.536623 2.140401 -24.671424 10.365847 61.747654 -33.335411 -85.791201 16.532557 -3.580895 13.649220 1.417491 -53.788924 -13.859948 -166.469472 82.528522 -155.792861 -29.875961 -1.947022 -1.292668 -0.439538 -10.511397 2.058373 -15.625362 -55.399577 14.975211 -71.773250 66.189395 -77.320472 30.231256 6.868083 15.048449 0.387573 -0.266365 0.230681
-117.700969 48.986851 19.730758 -178.973899 -31.143864 -3.321591 0.921087 17.800879 2.916769 0.130910 2.043696 0.306106 0.203988 3.368107 0.495503 1.210710 15.736930 2.440452 9.995374 24.472994 -0.840732 18.066336 10.286438 -3.902104 1.457610 -6.490074 -4.073772 -4.900422 -21.931751 -7.962671 -59.418834 -41.670119 85.952322 -2.743311 -6.115518 -6.894396 -5.545063 -4.382075 5.517549 2.195079 -24.504857 10.323933 61.755012 -33.325183 -85.792995 16.534356 -3.580108 13.637399 1.433690 -53.810211 -13.858181 -166.299475 82.536358 -155.669441 -29.859256 -1.904424 -1.250331 -0.452522 -10.510428 2.054557 -15.620963 -55.420592 14.967589 -71.727097 66.180615 -77.275926 30.233254 6.888211 15.057669 0.390601 -0.265055 0.225215
-117.713783 48.988599 19.744186 -178.937940 -31.107118 -3.326049 0.897989 17.776207 2.914088 0.132315 2.045830 0.311876 0.207532 3.366377 0.503342 1.211898 15.728928 2.452749 9.957837 24.654517 -0.849443 18.000118 10.625193 -3.893954 1.494218 -6.542523 -4.046930 -4.918594 -21.891899 -7.922369 -59.443016 -41.623342 85.939842 -2.746909 -6.151305 -6.860065 -5.622696 -4.458677 5.494135 2.272118 -24.366720 10.276979 61.771816 -33.315327 -85.811970 16.581952 -3.579308 13.501760 1.476194 -53.837235 -13.905044 -166.141074 82.541664 -155.512917 -29.868427 -1.897661 -1.232711 -0.437992 -10.490078 2.061797 -15.642140 -55.458042 14.959592 -71.620375 66.172658 -77.189248 30.270060 6.929664 15.105029 0.363577 -0.274700 0.195811
-117.725920 48.989865 19.756929 -178.895548 -31.068625 -3.344556 0.877430 17.758259 2.933074 0.118590 2.030776 0.299320 0.211869 3.366895 0.509745 1.215737 15.726229 2.477699 9.942109 24.859129 -0.860354 17.961383 11.013384 -3.884188 1.546819 -6.609772 -4.019006 -4.933587 -21.850819 -7.876559 -59.459425 -41.582153 85.904193 -2.753881 -6.181570 -6.816473 -5.697865 -4.523194 5.468393 2.348218 -24.243626 10.224626 61.805079 -33.309702 -85.840045 16.588657 -3.577501 13.306944 1.521537 -53.860451 -13.940091 -165.871034 82.544697 -155.245442 -29.874615 -1.883608 -1.197794 -0.426838 -10.467898 2.065272 -15.667941 -55.496331 14.959304 -71.540350 66.163037 -77.116508 30.293770 6.955619 15.136271 0.339907 -0.278744 0.194251
-117.736600 48.993683 19.763546 -178.889538 -31.066700 -3.359613 0.898117 17.768326 2.970516 0.117447 2.028289 0.301257 0.200439 3.359661 0.501598 1.221247 15.719907 2.504986 9.941252 25.088904 -0.870831 17.957873 11.453897 -3.869710 1.603029 -6.688639 -3.985701 -4.942681 -21.811496 -7.825568 -59.458988 -41.544623 85.838090 -2.764188 -6.209650 -6.773694 -5.793540 -4.589519 5.440725 2.427346 -24.129349 10.184969 61.854888 -33.292166 -85.868996 16.577633 -3.568190 13.090020 1.526889 -53.856678 -13.929777 -165.748456 82.549122 -155.142232 -29.864385 -1.861253 -1.165136 -0.431484 -10.465040 2.059419 -15.637226 -55.506691 14.944561 -71.539535 66.155393 -77.095233 30.296442 6.985871 15.135162 0.343076 -0.292059 0.199967
-117.747359 48.997337 19.768138 -178.878758 -31.069482 -3.381694 0.911544 17.777056 3.008225 0.134683 2.018908 0.319220 0.196152 3.350146 0.508168 1.189374 15.722267 2.505046 9.973463 25.343386 -0.881805 17.996996 11.945775 -3.846692 1.668688 -6.776393 -3.946409 -4.938145 -21.777532 -7.769061 -59.436886 -41.505849 85.733994 -2.776205 -6.239634 -6.736631 -5.896708 -4.652262 5.411648 2.497267 -24.011900 10.120635 61.929973 -33.305156 -85.887706 16.561992 -3.552595 12.833854 1.521459 -53.846737 -13.918822 -165.680888 82.553899 -155.087493 -29.853115 -1.842522 -1.137237 -0.435286 -10.464750 2.053895 -15.659421 -55.501315 14.964410 -71.529211 66.154823 -77.082939 30.287127 6.988648 15.129806 0.356758 -0.279119 0.191045
-117.761125 48.999156 19.773233 -178.843750 -31.057980 -3.401660 0.911959 17.759641 3.039862 0.124942 2.010541 0.312340 0.194906 3.344224 0.511111 1.201998 15.684010 2.553174 10.004801 25.660403 -0.903414 18.086512 12.484207 -3.813823 1.704957 -6.830047 -3.915661 -4.912468 -21.754043 -7.709310 -59.390593 -41.458135 85.591810 -2.792031 -6.272101 -6.713406 -6.031643 -4.669202 5.362282 2.552552 -23.902358 10.028129 62.022001 -33.354746 -85.885023 16.544326 -3.534693 12.546379 1.502579 -53.852440 -13.926846 -165.707359 82.562010 -155.135665 -29.855536 -1.821321 -1.110564 -0.437201 -10.466545 2.051255 -15.670723 -55.518165 14.950298 -71.506802 66.156720 -77.054930 30.286768 7.003318 15.141093 0.356552 -0.279413 0.190294
-117.773325 49.001214 19.775942 -178.826961 -31.055459 -3.423823 0.912570 17.751832 3.062820 0.131958 1.994141 0.317855 0.186825 3.353074 0.508018 1.204476 15.656119 2.572359 10.100213 25.968247 -0.892450 18.238408 13.060903 -3.773794 1.756013 -6.907887 -3.845720 -4.863970 -21.749484 -7.650462 -59.313885 -41.398964 85.406854 -2.815345 -6.311310 -6.702480 -6.145525 -4.699359 5.349982 2.601470 -23.822112 9.939390 62.067794 -33.420261 -85.839596 16.533728 -3.564943 12.234750 1.473194 -53.850044 -13.912862 -165.751650 82.570314 -155.193928 -29.862198 -1.811699 -1.098574 -0.430865 -10.465576 2.052181 -15.679147 -55.524250 14.951518 -71.502593 66.156559 -77.041869 30.285002 7.015183 15.147781 0.360880 -0.280621 0.189057
-117.784846 49.003117 19.777110 -178.826523 -31.056910 -3.442255 0.939809 17.731087 3.098896 0.117013 2.003011 0.312395 0.189517 3.349770 0.510299 1.193277 15.631675 2.588800 10.233323 26.287635 -0.875649 18.456396 13.662236 -3.728672 1.819387 -6.985385 -3.771052 -4.797954 -21.769672 -7.592992 -59.199374 -41.337802 85.166983 -2.842787 -6.362712 -6.693143 -6.243987 -4.734630 5.343466 2.643766 -23.754252 9.838570 62.166198 -33.528703 -85.758200 16.509259 -3.569391 11.892886 1.459331 -53.842780 -13.904400 -165.849371 82.580320 -155.293542 -29.864680 -1.807183 -1.090980 -0.426976 -10.464026 2.051294 -15.683852 -55.528978 14.961213 -71.519803 66.155953 -77.049709 30.285664 7.028921 15.148929 0.366500 -0.287018 0.185962
-117.797063 49.005572 19.775710 -178.816183 -31.069385 -3.460889 0.944468 17.723110 3.121850 0.111493 2.011665 0.309976 0.190968 3.333225 0.515966 1.173102 15.622590 2.604935 10.397857 26.608771 -0.854232 18.730022 14.269527 -3.680228 1.898454 -7.062963 -3.702872 -4.722261 -21.812619 -7.533412 -59.041065 -41.295875 84.862279 -2.795565 -6.404132 -6.697182 -6.332640 -4.781421 5.340142 2.697259 -23.695790 9.722854 62.229061 -33.719527 -85.598906 16.497392 -3.613940 11.529972 1.445369 -53.820351 -13.911514 -166.009497 82.591870 -155.451035 -29.867035 -1.805428 -1.083014 -0.422590 -10.464119 2.048552 -15.680439 -55.531183 14.935681 -71.562499 66.173011 -77.073492 30.305969 7.040406 15.153792 0.343631 -0.301796 0.172872
-117.808790 49.011212 19.767793 -178.889882 -31.126973 -3.437324 1.005704 17.733180 3.156997 0.107130 2.006618 0.313121 0.188876 3.333739 0.516295 1.152363 15.633090 2.608105 10.586324 26.921215 -0.830205 19.046715 14.862857 -3.631637 1.996060 -7.138972 -3.648549 -4.638810 -21.875745 -7.467879 -58.864249 -41.327215 84.502302 -2.823893 -6.442912 -6.686390 -6.420873 -4.839656 5.340496 2.794182 -23.646061 9.578944 62.206061 -33.990091 -85.350420 16.474313 -3.719334 11.183062 1.493590 -53.761738 -13.900622 -166.096398 82.602077 -155.545282 -29.899099 -1.785514 -1.085750 -0.388478 -10.477768 2.059046 -15.615321 -55.478280 14.922723 -71.608630 66.163668 -77.123283 30.355571 6.991603 15.184000 0.308752 -0.276386 0.143706
